<?xml version="1.0" encoding="UTF-8" standalone="no"?>
<svg
   version="1.1"
   id="Layer_1"
   x="0px"
   y="0px"
   width="3840"
   viewBox="0 0 3840 2500"
   enable-background="new 0 0 1536 1024"
   xml:space="preserve"
   sodipodi:docname="Eclipse-SDV-Landscape-logo-widescreen.svg"
   inkscape:version="1.4.2 (ebf0e94, 2025-05-08)"
   inkscape:export-filename="Eclipse-SDV-Landscape-logo.png"
   inkscape:export-xdpi="96"
   inkscape:export-ydpi="96"
   height="2500"
   xmlns:inkscape="http://www.inkscape.org/namespaces/inkscape"
   xmlns:sodipodi="http://sodipodi.sourceforge.net/DTD/sodipodi-0.dtd"
   xmlns:xlink="http://www.w3.org/1999/xlink"
   xmlns="http://www.w3.org/2000/svg"
   xmlns:svg="http://www.w3.org/2000/svg"><defs
   id="defs87"><linearGradient
     id="linearGradient107"
     inkscape:collect="always"><stop
       style="stop-color:#b92687;stop-opacity:1;"
       offset="0"
       id="stop107" /><stop
       style="stop-color:#f64b95;stop-opacity:1;"
       offset="1"
       id="stop108" /></linearGradient><linearGradient
     id="linearGradient103"
     inkscape:collect="always"><stop
       style="stop-color:#e12080;stop-opacity:1;"
       offset="0"
       id="stop103" /><stop
       style="stop-color:#43075c;stop-opacity:1;"
       offset="1"
       id="stop104" /></linearGradient><linearGradient
     id="linearGradient97"><stop
       style="stop-color:#610b86;stop-opacity:1;"
       offset="0"
       id="stop100" /><stop
       style="stop-color:#610b86;stop-opacity:1;"
       offset="1"
       id="stop101" /></linearGradient><linearGradient
     id="linearGradient97-1"><stop
       style="stop-color:#610b86;stop-opacity:1;"
       offset="0"
       id="stop98" /><stop
       style="stop-color:#c01b82;stop-opacity:1"
       offset="1"
       id="stop99" /></linearGradient><linearGradient
     id="linearGradient92"
     inkscape:swatch="gradient"><stop
       style="stop-color:#610b86;stop-opacity:1;"
       offset="0"
       id="stop92" /><stop
       style="stop-color:#610b86;stop-opacity:0;"
       offset="1"
       id="stop93" /></linearGradient><linearGradient
     inkscape:collect="always"
     xlink:href="#linearGradient103"
     id="linearGradient104"
     x1="756.04974"
     y1="563.52856"
     x2="1143.0419"
     y2="563.52856"
     gradientUnits="userSpaceOnUse"
     spreadMethod="reflect"
     gradientTransform="translate(-0.2627972,-35.210293)" /><linearGradient
     inkscape:collect="always"
     xlink:href="#linearGradient107"
     id="linearGradient108"
     x1="754.13501"
     y1="275.17877"
     x2="754.13501"
     y2="449.3472"
     gradientUnits="userSpaceOnUse"
     gradientTransform="matrix(3.1122965,0,0,3.1122965,-564.97585,-359.27165)" /></defs><sodipodi:namedview
   id="namedview87"
   pagecolor="#ffffff"
   bordercolor="#000000"
   borderopacity="0.25"
   inkscape:showpageshadow="2"
   inkscape:pageopacity="0.0"
   inkscape:pagecheckerboard="0"
   inkscape:deskcolor="#d1d1d1"
   inkscape:zoom="0.27863045"
   inkscape:cx="1568.3857"
   inkscape:cy="1046.1886"
   inkscape:window-width="1920"
   inkscape:window-height="1111"
   inkscape:window-x="-9"
   inkscape:window-y="-9"
   inkscape:window-maximized="1"
   inkscape:current-layer="Layer_1"
   inkscape:export-bgcolor="#ffffff00"
   showgrid="false"><inkscape:grid
     id="grid2"
     units="px"
     originx="0"
     originy="0"
     spacingx="1"
     spacingy="1"
     empcolor="#0099e5"
     empopacity="0.30196078"
     color="#0099e5"
     opacity="0.14901961"
     empspacing="5"
     enabled="true"
     visible="false" /></sodipodi:namedview>
<path
   id="path106"
   style="fill:url(#linearGradient108);stroke-width:3.35816"
   d="m 2323.7364,1040.4663 c 0,299.129 -206.9491,119.0582 -506.0779,119.0582 -299.1287,0 -577.1632,180.0708 -577.1632,-119.0582 0,-299.12902 242.4919,-541.62098 541.6206,-541.62098 299.1287,0 541.6205,242.49196 541.6205,541.62098 z"
   sodipodi:nodetypes="sssss" /><g
   id="g87"
   transform="matrix(3.1122964,0,0,3.1122964,-521.69217,-348.10166)"><path
     fill="#43075c"
     opacity="1"
     stroke="none"
     d="m 746.20212,470.09298 c 203.61724,2.16694 301.72608,19.07044 395.67768,83.4526 -386.07691,-32.88377 -431.94242,-31.54557 -820.35775,7.2466 137.97869,-67.27447 292.72278,-92.10352 424.68007,-90.6992 z"
     id="path18"
     sodipodi:nodetypes="sccs"
     style="fill:url(#linearGradient104);fill-rule:nonzero" /></g>











































































<path
   fill="#fde1ed"
   opacity="1"
   stroke="none"
   d="m 2199.6326,1124.5613 c -79.3286,-18.6514 -162.0075,-55.4324 -240.7374,-69.7158 -4.2165,-1.8811 -12.8467,-7.7551 -16.0204,-11.3496 13.1833,-67.6664 87.7149,-115.46176 162.4978,-99.46655 88.6501,18.96138 105.2754,86.83815 106.9911,127.51115 0.6259,14.8357 -7.7199,37.0309 -12.7311,53.0208 z"
   id="path76"
   inkscape:label="Sun-light"
   sodipodi:nodetypes="cccssc"
   style="stroke-width:3.11229" /><g
   id="g105"
   inkscape:label="Mountain"
   transform="matrix(3.1122964,0,0,3.1122964,-563.57959,-353.68665)"><path
     fill="#fde1ed"
     opacity="1"
     stroke="none"
     d="m 952.41077,447.83662 c 5.11829,2.6659 5.70005,2.6262 7.50272,5.03499 0.79547,1.6961 29.84317,17.75306 29.76227,28.18818 -2.32093,-1.39523 -13.58445,5.1609 -14.76939,4.43473 -1.12817,-0.69143 -16.76904,-13.85089 -18.44939,-19.26917 -1.39913,-3.86418 -4.32434,-15.75576 -4.04621,-18.38873 z m -8.9605,18.798 c 3.40943,2.32379 2.89041,3.03479 3.34488,3.54023 0.79547,1.6961 1.33404,0.73882 2.43078,3.37911 0.0904,1.91336 2.6209,6.25924 1.43596,5.53307 -1.12817,-0.69143 -6.85998,-4.75751 -8.25994,-5.63348 0.2832,-2.12577 0.6524,-3.6869 1.04832,-6.81893 z"
     id="path69"
     style="display:inline"
     sodipodi:nodetypes="cccscccccscc" /><path
     fill="#430556"
     opacity="1"
     stroke="none"
     d="m 459.02899,510.07562 c 2.75467,-2.22435 3.88411,-2.00777 7.76583,-4.58413 1.99004,-1.32082 -0.68995,0.63047 4.17528,-3.04936 1.71939,-1.30176 3.21444,-2.1549 5.58672,-3.40563 2.25901,1.21622 4.96354,2.29679 6.33112,3.6952 4.22031,4.31552 12.62959,5.41908 17.87614,2.49543 3.08899,-1.72134 3.25252,-4.20311 0.0838,-5.57247 -2.8761,-1.24289 -6.06348,-1.95573 -8.5498,-0.82015 -5.17649,2.36423 -7.72575,-0.5788 -10.37702,-4.04577 1.09048,-0.94272 2.22302,-1.75926 3.94705,-2.62669 3.30994,2.95169 6.28932,3.71867 9.83247,1.72925 2.13763,-1.20022 4.30878,-2.63416 6.35373,-3.84981 0,0 2.79628,1.16387 5.26251,2.10379 5.09186,-0.0441 6.37838,-3.63508 7.68611,-7.119 1.34535,-7.1e-4 2.70187,-0.0918 4.0482,-0.1537 2.64972,-1.49384 5.71995,-3.21198 8.84148,-4.44749 1.7525,3.31958 2.61256,6.60514 4.12104,10.21113 3.76758,-3.68524 4.7449,-7.40957 2.23922,-11.82427 3.13526,0.11328 6.01767,-0.91029 7.53092,3.20858 1.34796,3.66891 5.05816,2.78927 7.09972,-0.4798 1.51807,1.01828 3.20607,2.36127 4.37147,3.29227 5.5647,4.44568 10.3205,2.40088 11.62098,-5.01566 5.30603,-3.64474 10.61206,-7.28949 16.50757,-11.23358 5.31872,-3.60327 10.04791,-6.90716 14.82397,-10.24377 1.26764,2.01761 2.5293,4.02551 4.35132,6.92541 5.37463,-4.41553 10.80188,-7.8457 14.89557,-12.45917 7.69275,-8.66955 14.57165,-18.05816 21.92108,-27.03967 0.7854,-0.95987 2.78325,-1.76372 4.01347,-1.86757 0.008,1.96371 -0.0903,4.04518 -0.29487,5.5038 -1.40992,10.04956 1.22924,18.67981 8.74462,25.67069 0.12006,0.11163 0.1944,0.27111 0.30951,0.38943 3.19422,3.28345 3.28864,6.50574 -0.41101,10.08432 -4.48907,-4.25964 -8.89013,-8.43573 -13.2912,-12.61185 -0.43353,0.24045 -0.86706,0.4809 -1.30066,0.72138 3.45814,6.97873 6.9162,13.95746 10.40155,20.99118 2.23176,-1.60773 3.77289,-2.71793 5.70228,-3.78507 5.21081,-2.32009 10.1491,-4.47869 14.81433,-7.11965 3.01837,-1.70871 2.26483,-3.60987 -0.89893,-5.12211 -2.34802,-3.65496 -4.50171,-7.01834 -6.6554,-10.38174 4.63758,1.63516 8.56098,3.65204 12.27094,6.0054 3.72821,2.36496 6.36084,1.61374 8.66095,-2.29019 4.98346,-5.07401 9.7074,-9.97986 14.29889,-15.00668 1.96661,-2.15305 3.65765,-4.55783 5.7735,-6.9892 6.70654,-6.48157 13.1134,-12.8222 19.75177,-19.18301 0.51776,-0.19144 0.68634,-0.44193 0.92993,-0.93186 0.26447,-0.31116 0.33612,-0.4621 0.70709,-0.72119 1.60755,-1.37961 2.85541,-2.72125 4.23615,-3.90836 3.19891,-2.7503 6.46209,-5.42584 9.70941,-7.71392 2.31854,17.31564 7.75622,32.73663 20.72027,44.66223 1.32697,1.22067 3.89923,3.80389 4.69048,5.4397 -0.58282,0.40454 -0.78464,0.77466 -3.25532,-0.24818 -9.49865,-5.17398 -18.33725,-10.34728 -27.49308,-15.44131 10.42511,12.02683 19.58734,25.10852 33.59308,34.08481 -0.86627,-2.62927 -1.5802,-4.7962 -2.55151,-7.7442 19.27557,9.02008 35.28387,22.55218 57.03686,25.36697 -3.67254,-2.73239 -6.69549,-4.98153 -9.79291,-7.60623 -1.23388,-4.70291 0.16401,-7.55875 4.54743,-9.03314 1.98205,-0.66672 2.82616,-1.88703 5.0678,-2.9133 2.8988,1.88589 6.38795,3.82883 8.63636,5.94873 2.78119,2.75922 5.85144,5.34146 8.92163,7.92371 0.67658,-0.8982 1.35321,-1.79639 2.37659,-2.62787 6.06116,2.23739 11.77551,4.40814 17.48987,6.57889 0.20892,-0.28971 0.41778,-0.57941 0.62665,-0.86912 -3.21839,-2.50341 -6.43683,-5.0068 -9.58954,-7.89328 3.08764,-4.20922 6.10962,-8.0354 9.50018,-11.97341 1.60449,0.20391 2.94745,0.30749 4.05963,0.86859 10.1969,5.14477 20.34076,10.39486 30.53754,15.53997 1.41461,0.71381 3.03314,1.02362 4.55725,1.52048 0.12414,-0.33593 0.24835,-0.67187 0.3725,-1.00781 -1.87561,-1.28613 -3.75129,-2.57224 -5.14368,-3.79941 9.21637,-0.38776 17.30768,-2.73193 24.7525,-7.48959 4.00519,-2.55954 8.18608,-5.12883 12.70756,-7.19139 4.36945,1.38696 8.48707,2.71379 12.49842,4.06465 1.18591,0.39938 2.6615,1.71758 3.75201,2.84963 -0.27813,2.633 -0.91386,4.99134 -1.19706,7.11711 1.39996,0.87597 2.51666,1.58615 3.64483,2.27758 1.18494,0.72617 2.38086,1.4343 4.70179,2.82953 -1.09674,-2.64029 -1.69605,-4.08307 -1.88953,-5.49035 3.7713,1.31671 6.09643,0.95812 6.51501,-3.34623 0.13068,-1.34366 1.14441,-2.60147 1.75391,-3.89859 1.96613,2.98056 3.5473,6.33356 5.98718,8.85578 3.80652,3.93506 8.19544,7.3067 11.99909,10.62197 0.1358,-2.75485 0.33978,-6.89248 0.53082,-10.76864 5.43634,2.42322 10.51746,4.71539 15.63,6.93533 0.70563,0.30643 1.56672,0.25498 2.3559,0.3692 -0.58173,0.50745 -1.16339,1.0149 -1.74505,1.52231 -4.89661,-6.01605 -9.64972,-12.16083 -14.82251,-17.92932 -0.92981,-1.0369 -3.58948,-0.52258 -6.42743,-0.83041 -3.1034,-3.44968 -7.07398,-7.86335 -10.65107,-11.83957 2.72455,0 6.05585,-0.22855 9.33185,0.0979 1.60101,0.15951 3.4112,1.01904 4.59546,2.12869 11.87518,11.12698 25.28327,19.9877 39.50105,27.82175 5.4443,2.99978 10.4424,3.81689 15.8534,0.75232 3.1097,-1.76117 5.4379,-1.16791 8.4552,0.89074 12.0905,8.24881 24.4359,16.12824 36.7808,23.9975 5.5465,3.53562 11.3135,6.72562 17.2947,10.63614 -1.289,1.61261 -2.8612,3.45642 -4.503,3.52051 -2.3502,0.0918 -4.7154,-1.35712 -7.1384,-1.71845 -4.625,-0.68982 -9.2908,-1.12255 -13.9488,-1.56482 -1.7613,-0.16717 -3.5646,0.0831 -5.32,-0.11346 -6.194,-0.6936 -12.3679,-1.56689 -18.565,-2.22626 -2.3766,-0.25287 -4.7951,-0.11413 -7.6374,-0.15497 -2.5599,-0.19738 -4.6828,-0.34375 -6.7927,-0.59863 -9.2545,-1.11792 -18.505,-2.26721 -28.1643,-3.45642 -4.65088,-0.68347 -8.88098,-1.43091 -13.14044,-1.92587 -12.31647,-1.43122 -24.63171,-2.89475 -36.97174,-4.09595 -14.81537,-1.44223 -29.65576,-2.62698 -44.91901,-3.92834 -5.52941,-0.35795 -10.62213,-0.76359 -15.72143,-1.05405 -17.61292,-1.00318 -35.22815,-1.96619 -53.27619,-2.95285 -3.05725,-0.31976 -5.67492,-0.83173 -8.30523,-0.90891 -13.76483,-0.4039 -27.53406,-1.02227 -41.29944,-0.9667 -53.88936,-1.07817 -107.63494,1.57045 -161.42652,3.87619 -8.23516,0.35519 -16.03253,0.43997 -23.77538,1.13348 -16.266,1.45697 -32.5033,3.23371 -49.17811,4.87744 -16.18839,1.77358 3.02178,-0.25985 -32.02569,3.99561 -7.60456,0.42096 -14.79648,0.55438 -21.91763,1.33429 -9.27115,1.01538 -18.51459,2.37219 -27.71738,3.89923 -9.453,1.5686 -2.80807,0.2777 -15.37814,2.59147 M 727.2341,471.02172 c 0.0907,0.13931 0.18146,0.27859 0.27216,0.41791 -0.0311,-0.25672 -0.0623,-0.51346 -0.75129,-0.96372 -5.68267,-6.53296 -11.36535,-13.06592 -17.32446,-19.91666 -2.61578,3.80823 -5.28436,7.69327 -7.76947,11.31128 3.23956,1.32947 6.04981,2.68509 8.98914,3.64554 5.55871,1.81641 11.19165,3.40579 16.58392,5.50565"
     id="path2"
     inkscape:label="Mountain"
     sodipodi:nodetypes="csccssssccscccccccsccccccsscssccccccsccscsccccscscccccccscccccccccscccscsccsccscsccsccsccsssssscssssscscsscscsscsccssccccccsc"
     style="display:inline" /><path
     fill="#4c075d"
     opacity="1"
     stroke="none"
     d="m 927.41418,460.19104 c -0.31109,-0.17587 -0.30877,-0.47482 -0.37786,-0.60745 7.05426,-3.45703 14.17645,-6.78391 21.30224,-10.10297 1.02014,-0.47516 2.05786,-0.91251 3.91406,-1.73242 1.68586,6.03854 3.35519,12.36821 4.88357,18.47463 -0.67108,1.70831 -1.76412,3.28335 -1.8948,4.62701 -0.41858,4.30435 -2.50579,4.10779 -6.47332,2.53778 -2.20844,-2.44431 -4.0528,-4.99626 -5.65924,-7.15172 -1.06946,-0.74527 -2.04035,-1.78308 -3.22626,-2.18246 -4.01135,-1.35086 -8.09894,-2.47544 -12.46839,-3.8624 z"
     id="path42"
     sodipodi:nodetypes="ccsccsccsc"
     style="display:inline" /><path
     fill="#43075c"
     opacity="1"
     stroke="none"
     d="m 481.96989,494.75982 c 2.98099,3.39792 5.15172,5.9903 10.32821,3.62607 2.48632,-1.13558 6.57095,0.0259 9.44705,1.26877 3.1687,1.36936 2.78085,4.29975 -0.30814,6.02109 -5.24655,2.92365 -15.22601,1.25931 -19.44632,-3.05621 -1.36758,-1.39841 -3.58844,-2.2056 -5.53922,-3.51356 1.24982,-1.39236 3.59429,-3.02744 5.51842,-4.34616 z"
     id="path45"
     sodipodi:nodetypes="csssscc"
     style="display:inline" /><path
     fill="#b62486"
     opacity="1"
     stroke="none"
     d="m 564.99207,479.89507 c -0.91187,7.39493 -5.93445,9.78018 -11.49915,5.3345 -1.1654,-0.931 -2.83897,-2.10974 -4.54906,-3.40033 -4.90112,-3.31836 -9.41884,-6.01463 -10.10835,-12.05721 2.1723,0.81351 4.36292,1.58145 6.51337,2.4491 6.2586,2.52509 13.0058,5.1462 19.64319,7.67394 z"
     id="path46"
     sodipodi:nodetypes="csccsc"
     style="display:inline" /><path
     fill="#43075c"
     opacity="1"
     stroke="none"
     d="m 538.8139,469.76776 c 0.99151,5.90665 5.42511,8.68704 10.01349,11.86813 -1.5368,3.67862 -5.97601,4.05356 -7.32397,0.38465 -1.51325,-4.11887 -3.75076,-2.81491 -6.88602,-2.92819 2.50568,4.4147 1.16385,8.19511 -2.60373,11.88035 -1.50848,-3.60599 -2.78912,-7.00371 -4.21057,-10.47081 3.38226,-3.75656 7.18572,-7.24749 11.0108,-10.73413 z"
     id="path47"
     sodipodi:nodetypes="ccscccc"
     style="display:inline" /><path
     fill="#871068"
     opacity="1"
     stroke="none"
     d="m 515.04502,485.03233 c -0.90118,3.44983 -2.412,7.51747 -7.64995,7.24238 -1.76318,-0.77581 -3.58506,-1.30308 -4.59378,-1.85839 0,0 -0.97426,-0.28675 -1.43663,-0.56864 -2.92273,-1.71695 -5.5947,-2.44064 -5.49094,-6.34426 1.83639,-2.97315 4.18503,-2.77945 7.1593,-1.65131 3.5921,1.36246 7.88575,2.18816 12.012,3.18022 z"
     id="path48"
     sodipodi:nodetypes="cccccsc"
     style="display:inline" /><path
     fill="#620b60"
     opacity="1"
     stroke="none"
     d="m 495.90406,483.49048 c 0.2304,3.77637 3.40708,4.86457 6.08048,6.57752 -1.83496,1.63775 -4.00612,2.76327 -6.14375,3.96349 -3.54315,1.98942 -6.99919,1.22244 -10.00898,-1.81622 2.7901,-2.88059 6.61458,-5.87927 10.07225,-8.72479 z"
     id="path49"
     sodipodi:nodetypes="ccscc"
     style="display:inline" /><path
     fill="#871068"
     opacity="1"
     stroke="none"
     d="m 519.5708,484.76716 c -0.82819,0.24786 -3.01528,0.25011 -4.52169,0.26778 0.77906,-0.19821 3.06441,-0.29973 4.52169,-0.26778 z"
     id="path51"
     sodipodi:nodetypes="ccc"
     style="display:inline" /><path
     fill="#f9f6f9"
     opacity="1"
     stroke="none"
     d="m 748.69037,407.87595 c 5.47839,4.35202 10.6441,8.5838 16.28851,13.21963 13.65906,9.56741 26.91861,18.49282 40.28988,27.92971 1.1695,0.81507 2.62378,1.59449 3.61841,2.48197 6.13537,1.994 10.07432,3.51227 15.16251,5.62213 3.84351,1.59375 7.61701,3.6749 10.90338,6.21079 3.9076,3.01517 7.81564,6.74917 11.40884,10.17169 3.21839,2.50342 5.88169,5.00681 9.10008,7.51022 -0.20887,0.28971 -0.41773,0.57941 -0.62665,0.86912 -5.71436,-2.17075 -11.42871,-4.3415 -17.77478,-6.80009 -3.99579,-1.94241 -7.28074,-3.04187 -10.64494,-4.69647 -2.53747,-1.94293 -5.7094,-4.20309 -8.96257,-6.16747 -16.06824,-8.09241 -30.86552,-16.40128 -46.36661,-24.71888 -0.81452,-0.64355 -1.48047,-1.04047 -2.14643,-1.43735 -0.138,0.15302 -0.276,0.30606 -0.41406,0.45908 0.54388,0.68848 1.08771,1.37692 1.76587,2.38245 9.85858,14.97329 21.04028,26.69834 37.10247,34.60492 3.02295,2.24912 6.52174,5.37063 10.19428,8.10302 -21.75299,-2.81479 -37.76129,-16.34689 -57.03686,-25.36697 0.97131,2.948 1.68524,5.11493 2.55151,7.7442 -14.00574,-8.97629 -23.16797,-22.05798 -33.59308,-34.08481 9.15583,5.09403 18.31165,10.18802 28.06934,15.6117 1.2655,0.30166 1.92908,0.27368 2.59271,0.24566 -0.37402,-0.46774 -0.74811,-0.93545 -1.12219,-1.40313 -1.15289,-1.40995 -2.15497,-2.98377 -3.48194,-4.20444 -12.96405,-11.9256 -18.40173,-27.34659 -20.72027,-44.66226 4.50311,3.13992 9.01654,6.69763 13.84259,10.37558 z"
     id="path54"
     sodipodi:nodetypes="ccccssccccccccccccccccccscc"
     style="display:inline" /><path
     fill="#f9f6f9"
     opacity="1"
     stroke="none"
     d="m 652.43005,433.48834 c 8.85694,6.26822 17.93872,12.61692 26.85907,18.77555 -1.64349,3.88907 -4.78082,4.34588 -8.50903,1.98092 -3.70996,-2.35336 -7.63336,-4.37024 -12.27094,-6.0054 2.15369,3.3634 4.46599,6.38973 6.63066,10.3766 -4.69952,4.37128 -9.56852,8.4561 -14.27891,12.20387 -1.54114,1.11017 -3.08227,2.22037 -5.31403,3.8281 -3.48535,-7.03372 -6.94341,-14.01245 -10.40155,-20.99118 0.4336,-0.24048 0.86713,-0.48093 1.30066,-0.72138 4.40107,4.17612 8.80213,8.35221 13.2912,12.61185 3.69965,-3.57858 3.60523,-6.80087 0.41101,-10.08432 -0.11511,-0.11832 -0.18945,-0.2778 -0.30951,-0.38943 -7.51538,-6.99088 -10.15454,-15.62113 -8.74462,-25.67069 0.20465,-1.45862 0.20465,-3.13792 0.19635,-5.10163 3.71582,2.62371 7.16882,5.87775 11.13964,9.18714 z"
     id="path60"
     sodipodi:nodetypes="ccscccccccscscc"
     style="display:inline" /><path
     fill="#4c075d"
     opacity="1"
     stroke="none"
     d="m 767.75822,437.28754 c 15.35247,8.07093 34.41964,18.92654 50.12655,27.07601 -1.52594,1.0477 -3.55964,1.95078 -5.54169,2.6175 -4.38342,1.47439 -4.90895,4.72676 -3.67506,9.42967 -15.98773,-7.531 -28.8541,-19.73986 -38.43308,-34.91018 0.31812,-0.6629 -2.64951,-4.06422 -2.47672,-4.213 z"
     id="path63"
     sodipodi:nodetypes="ccsccc"
     style="display:inline" /><path
     fill="#4c075d"
     opacity="1"
     stroke="none"
     d="m 846.42758,473.52535 c -3.65888,-3.03946 -7.56692,-7.17 -11.47452,-10.18517 -3.28637,-2.53589 -7.05987,-4.61704 -10.90338,-6.21079 -5.08819,-2.10986 -10.45465,-3.54882 -15.34131,-5.5592 2.6756,-0.059 4.99097,0.16513 7.68726,0.53732 10.37933,1.26737 20.27661,2.69916 29.60339,6.88703 2.78113,1.24878 6.62585,1.46247 9.63946,2.19343 -3.02198,3.82614 -6.12325,8.12815 -9.2109,12.33738 z"
     id="path65"
     sodipodi:nodetypes="cssccscc"
     style="display:inline" /><path
     fill="#f9f6f9"
     opacity="1"
     stroke="none"
     d="m 855.37262,461.1554 c -3.3822,-0.61908 -6.59247,-0.91208 -9.3736,-2.16086 -9.32678,-4.18787 -19.22406,-5.61966 -29.30566,-7.17719 8.66992,-0.83056 17.43671,-1.92663 25.96063,1.48194 3.18146,1.27224 6.71484,1.63696 9.97656,2.74322 3.85773,1.30838 7.72669,2.7096 11.35804,4.53381 7.95532,3.99634 15.68448,8.04712 23.55295,12.2164 0.36871,0.38583 1.33223,0.93028 1.97383,1.33116 2.14837,1.3012 3.74648,2.54766 5.62209,3.83379 -0.12415,0.33594 -0.48628,0.79084 -0.61042,1.12677 -1.52411,-0.49686 -3.14264,-0.80667 -4.55725,-1.52048 -10.19678,-5.14511 -20.34064,-10.3952 -30.53754,-15.53997 -1.11218,-0.5611 -2.45514,-0.66468 -4.05963,-0.86859 z"
     id="path66"
     style="display:inline"
     sodipodi:nodetypes="cscsssccccssc" /><path
     fill="#f9f6f9"
     opacity="1"
     stroke="none"
     d="m 724.29012,469.91905 c -0.439,-0.2039 -8.08126,-2.58656 -13.63997,-4.40297 -2.93933,-0.96045 -5.74958,-2.31607 -8.98914,-3.64554 2.48511,-3.61801 5.15369,-7.50305 7.76947,-11.31128 5.95911,6.85074 11.1263,12.65012 17.12691,19.26331 0.31793,0.0802 1.00542,1.61652 1.00542,1.61652 z"
     id="path67"
     style="display:inline"
     sodipodi:nodetypes="ssccccs" /><path
     fill="#b62486"
     opacity="1"
     stroke="none"
     d="m 648.50133,472.47519 c 4.32214,-3.79084 11.7197,-9.73146 16.6135,-13.81114 3.15283,0.88873 4.10581,3.44981 1.08744,5.15852 -4.66523,2.64096 -12.49013,6.33249 -17.70094,8.65262 z"
     id="path68"
     sodipodi:nodetypes="ccsc"
     style="display:inline" /><path
     fill="#4c075d"
     opacity="1"
     stroke="none"
     d="m 825.4921,469.77856 c 3.65326,1.47763 8.36572,3.76668 12.01483,5.64245 -0.39179,1.11932 -1.86148,1.62098 -2.53806,2.51918 -3.07019,-2.58225 -6.69558,-5.40241 -9.47677,-8.16163 z"
     id="path70"
     sodipodi:nodetypes="cccc"
     style="display:inline" /></g><path
   fill="#450a5b"
   opacity="1"
   stroke="none"
   d="m 1507.0928,366.97138 c 222.8575,-15.72386 439.5121,3.10314 647.0325,88.58644 82.6574,34.04871 160.2218,77.65362 236.1042,124.56925 67.4388,41.69554 135.0875,82.75537 212.4035,104.98035 71.5523,20.56826 144.935,30.17402 218.2034,41.18987 128.3231,19.29335 255.0531,45.187 375.267,96.22885 60.0823,25.51041 116.1435,57.40653 162.0943,104.72569 31.2229,32.15294 53.4073,69.79957 65.9922,112.90767 1.5577,5.3367 1.9023,11.0277 1.7896,16.9631 -18.0118,-47.2618 -46.1937,-86.8729 -84.4966,-119.65513 -52.0529,-44.54957 -112.4679,-73.27961 -176.4293,-95.77177 -113.1892,-39.80362 -230.7858,-57.90981 -349.2542,-72.41598 -67.8549,-8.30864 -135.8784,-16.4507 -203.0425,-28.89512 -87.9348,-16.29302 -165.3633,-58.62548 -240.426,-105.58634 -97.6102,-61.0672 -197.567,-117.51663 -306.8459,-155.82044 -106.4342,-37.30675 -216.1248,-57.26025 -328.4119,-64.10118 -185.3053,-11.28947 -368.4785,6.75454 -550.8535,38.65877 -174.7787,30.57521 -345.99621,75.31827 -516.02745,125.20582 -7.24865,2.12679 -14.69081,3.5942 -22.38359,3.96036 C 924.35103,473.31531 1207.134,388.86084 1507.0928,366.97138 Z"
   id="path3"
   inkscape:label="Vehicle-Top"
   style="stroke-width:3.11229" /><path
   fill="#ce2269"
   opacity="1"
   stroke="none"
   d="m 1302.0723,791.48172 c 4.9524,-9.41534 -2.1741,-8.6157 -7.7812,-9.32206 -48.3484,-6.09183 -96.6921,-12.22031 -145.0349,-18.35808 -160.9444,-20.43403 -321.89338,-40.8318 -482.82924,-61.33347 -90.48693,-11.52722 -180.95143,-23.2307 -271.42523,-34.86144 -2.43569,-0.31316 -4.86156,-0.70211 -6.83068,-4.36793 17.07262,1.25971 34.16377,2.31066 51.21508,3.81182 162.19047,14.27953 324.40476,28.29968 486.55087,43.06835 147.1456,13.40244 294.227,27.51573 441.3147,41.54624 200.2628,19.10271 400.4901,38.5748 600.7607,57.59479 115.1099,10.93225 230.3832,20.26335 345.3518,32.48998 36.8632,3.9204 72.999,14.7424 109.4448,22.51317 158.6374,33.824 317.2665,67.68513 475.8961,101.54455 5.7808,1.23396 11.5342,2.59351 21.3522,4.80866 -5.5081,2.9757 -7.0985,4.6261 -8.4984,4.4782 -84.9769,-8.98664 -169.9668,-17.86818 -254.8945,-27.3045 -108.7104,-12.07907 -217.3691,-24.62816 -326.0559,-36.92339 -6.175,-0.69849 -12.4028,-0.93271 -21.1307,-1.64211 -4.4651,-0.90935 -6.363,-1.92532 -8.3523,-2.15632 -54.3954,-6.31824 -108.8004,-12.55634 -164.5277,-18.87732 -17.1374,-2.14008 -32.9337,-4.3532 -48.7673,-6.25441 -45.4731,-5.45984 -91.0016,-10.4777 -136.4331,-16.25922 -52.5525,-6.68781 -104.9808,-14.35744 -157.5435,-20.95992 -68.8959,-8.65418 -137.8703,-16.68169 -208.1279,-25.03059 -37.9675,-4.42114 -74.6441,-8.58676 -111.2628,-13.21132 -45.7453,-5.77723 -91.3975,-12.32494 -137.1933,-17.65027 -11.5717,-1.34566 -24.1694,-6.91349 -35.1976,2.65659 z"
   id="path4"
   inkscape:label="Vehicle-Arrow"
   style="stroke-width:3.11229" /><g
   id="g104"
   inkscape:label="Text"
   transform="matrix(4.9383415,0,0,4.9383415,-1726.0548,-1324.0719)"><text
     xml:space="preserve"
     style="font-size:90.0499px;font-family:Audiowide;-inkscape-font-specification:Audiowide;text-align:start;writing-mode:lr-tb;direction:ltr;text-anchor:start;fill:#aa206e;fill-opacity:1;stroke-width:8.09693"
     x="482.50586"
     y="696.83514"
     id="text2"
     inkscape:label="Landscape - Montserrat"><tspan
       sodipodi:role="line"
       id="tspan2"
       x="482.50586"
       y="696.83514"
       style="font-style:normal;font-variant:normal;font-weight:bold;font-stretch:normal;font-family:Montserrat;-inkscape-font-specification:'Montserrat Bold';fill:#aa206e;fill-opacity:1;stroke-width:8.09693">Landscape</tspan></text><text
     xml:space="preserve"
     style="font-style:normal;font-variant:normal;font-weight:normal;font-stretch:normal;font-size:100.907px;font-family:Audiowide;-inkscape-font-specification:Audiowide;text-align:start;writing-mode:lr-tb;direction:ltr;text-anchor:start;fill:#3e2861;fill-opacity:1;stroke-width:9.07321"
     x="751.08539"
     y="639.45312"
     id="text1"
     inkscape:label="SDV - audiowide"><tspan
       sodipodi:role="line"
       id="tspan1"
       x="751.08539"
       y="639.45312"
       style="fill:#3e2861;fill-opacity:1;stroke-width:9.07321">SDV</tspan></text><text
     xml:space="preserve"
     style="font-style:normal;font-variant:normal;font-weight:bold;font-stretch:normal;font-size:72.3669px;font-family:Montserrat;-inkscape-font-specification:'Montserrat Bold';text-align:start;writing-mode:lr-tb;direction:ltr;text-anchor:start;fill:#aa206e;fill-opacity:1;stroke-width:6.50696"
     x="483.19373"
     y="606.50537"
     id="text2-9"
     inkscape:label="Eclipse - Montserrat"><tspan
       sodipodi:role="line"
       id="tspan2-4"
       x="483.19373"
       y="606.50537"
       style="font-style:normal;font-variant:normal;font-weight:bold;font-stretch:normal;font-family:Montserrat;-inkscape-font-specification:'Montserrat Bold';fill:#aa206e;fill-opacity:1;stroke-width:6.50696">Eclipse</tspan></text></g>










</svg>
